<?xml version="1.0" encoding="utf-8"?><svg xml:space="preserve" viewBox="0 0 100 100" y="0" x="0" xmlns="http://www.w3.org/2000/svg" id="Layer_1" version="1.1" width="200px" height="200px" xmlns:xlink="http://www.w3.org/1999/xlink" style="width:100%;height:100%;animation-play-state:paused" ><g class="ldl-scale" style="transform-origin:50% 50% 0px;transform:rotate(0deg) scale(0.8);animation-play-state:paused" ><path fill="#e0e0e0" d="M82.983 40.919A74.123 74.123 0 0 1 91 50.195c-1.206-8.835-5.967-17.157-13.871-22.641a33.513 33.513 0 0 0-3.105-1.91 74.006 74.006 0 0 1 11.581 4.025c-5.462-7.049-13.746-11.875-23.333-12.672a33.512 33.512 0 0 0-3.644-.102 74.088 74.088 0 0 1 12.041-2.305c-8.255-3.374-17.842-3.411-26.543.692a33.235 33.235 0 0 0-3.206 1.734 74.123 74.123 0 0 1 9.276-8.017c-8.836 1.206-17.157 5.967-22.641 13.871a33.513 33.513 0 0 0-1.91 3.105 74.006 74.006 0 0 1 4.025-11.581c-7.049 5.462-11.875 13.746-12.672 23.333a33.512 33.512 0 0 0-.102 3.644 74.088 74.088 0 0 1-2.305-12.041c-3.374 8.255-3.411 17.842.692 26.543a33.37 33.37 0 0 0 1.734 3.207A74.123 74.123 0 0 1 9 49.804c1.206 8.835 5.967 17.157 13.871 22.641a33.513 33.513 0 0 0 3.105 1.91 74.006 74.006 0 0 1-11.581-4.025c5.462 7.049 13.746 11.875 23.333 12.672 1.226.102 2.442.133 3.644.102a74.08 74.08 0 0 1-12.042 2.305c8.255 3.374 17.842 3.411 26.543-.692a33.235 33.235 0 0 0 3.206-1.734A74.123 74.123 0 0 1 49.803 91c8.836-1.206 17.157-5.967 22.641-13.871a33.513 33.513 0 0 0 1.91-3.105 74.006 74.006 0 0 1-4.025 11.581c7.049-5.462 11.875-13.746 12.672-23.333.102-1.226.133-2.442.102-3.644a74.088 74.088 0 0 1 2.305 12.041c3.374-8.255 3.411-17.842-.692-26.543a33.027 33.027 0 0 0-1.733-3.207z" style="fill:rgb(224, 224, 224);animation-play-state:paused" ></path>
<path fill="#666766" d="M78.961 42.027A65.05 65.05 0 0 1 86 50.172c-1.059-7.758-5.239-15.064-12.18-19.88a29.367 29.367 0 0 0-2.726-1.677 65.07 65.07 0 0 1 10.168 3.534c-4.796-6.189-12.07-10.427-20.488-11.127a29.114 29.114 0 0 0-3.199-.089 65.129 65.129 0 0 1 10.573-2.024c-7.248-2.962-15.666-2.995-23.306.608-.977.461-1.915.971-2.815 1.522A65.05 65.05 0 0 1 50.172 14c-7.758 1.059-15.065 5.239-19.88 12.18a29.367 29.367 0 0 0-1.677 2.726 65.07 65.07 0 0 1 3.534-10.168c-6.189 4.796-10.427 12.07-11.127 20.488a29.114 29.114 0 0 0-.089 3.199 65.129 65.129 0 0 1-2.024-10.573c-2.962 7.248-2.995 15.666.608 23.306.461.977.971 1.915 1.523 2.815a65.05 65.05 0 0 1-7.039-8.145c1.059 7.758 5.239 15.065 12.18 19.88a29.367 29.367 0 0 0 2.726 1.677 65.07 65.07 0 0 1-10.168-3.534c4.796 6.189 12.07 10.427 20.488 11.127 1.077.09 2.144.117 3.2.089a65.022 65.022 0 0 1-10.573 2.024c7.248 2.962 15.666 2.995 23.306-.608a29.501 29.501 0 0 0 2.815-1.522A65.05 65.05 0 0 1 49.83 86c7.758-1.059 15.065-5.239 19.88-12.18a29.367 29.367 0 0 0 1.677-2.726 65.07 65.07 0 0 1-3.534 10.168c6.189-4.796 10.427-12.07 11.127-20.488.09-1.077.117-2.144.089-3.2a65.129 65.129 0 0 1 2.024 10.573c2.962-7.248 2.995-15.666-.608-23.306a29.62 29.62 0 0 0-1.524-2.814z" style="fill:rgb(102, 103, 102);animation-play-state:paused" ></path>
<path fill="#333" d="M75.009 43.115a56.062 56.062 0 0 1 6.078 7.033c-.914-6.699-4.524-13.009-10.518-17.167a25.237 25.237 0 0 0-2.354-1.448 56.09 56.09 0 0 1 8.781 3.052c-4.141-5.345-10.423-9.004-17.692-9.608a25.369 25.369 0 0 0-2.763-.077 56.177 56.177 0 0 1 9.13-1.748c-6.259-2.558-13.528-2.586-20.126.525a25.14 25.14 0 0 0-2.431 1.315 56.062 56.062 0 0 1 7.033-6.078c-6.699.914-13.009 4.524-17.167 10.518a25.237 25.237 0 0 0-1.448 2.354 56.09 56.09 0 0 1 3.052-8.781c-5.345 4.141-9.004 10.423-9.608 17.692-.077.93-.101 1.852-.077 2.763a56.177 56.177 0 0 1-1.748-9.13c-2.558 6.259-2.586 13.528.525 20.126a25.14 25.14 0 0 0 1.315 2.431 56.062 56.062 0 0 1-6.078-7.033c.914 6.699 4.524 13.009 10.518 17.167a25.368 25.368 0 0 0 2.354 1.448 56.09 56.09 0 0 1-8.781-3.052c4.141 5.345 10.423 9.004 17.692 9.608.93.077 1.851.101 2.763.077a56.177 56.177 0 0 1-9.13 1.748c6.259 2.558 13.528 2.586 20.126-.525a25.14 25.14 0 0 0 2.431-1.315 56.062 56.062 0 0 1-7.033 6.078c6.699-.914 13.009-4.524 17.167-10.518a25.237 25.237 0 0 0 1.448-2.354 56.09 56.09 0 0 1-3.052 8.781c5.345-4.141 9.004-10.423 9.608-17.692.077-.93.101-1.851.077-2.763a56.177 56.177 0 0 1 1.748 9.13c2.558-6.259 2.586-13.528-.525-20.126a25.14 25.14 0 0 0-1.315-2.431z" style="fill:rgb(51, 51, 51);animation-play-state:paused" ></path>
<circle r="20" cy="50" cx="50" style="animation-play-state:paused" ></circle>
<metadata xmlns:d="https://loading.io/stock/" style="animation-play-state:paused" ><d:name style="animation-play-state:paused" >blackhole</d:name>


<d:tags style="animation-play-state:paused" >blackhole,wormhole,pit,fall,dig,warp,whirl,spiral</d:tags>


<d:license style="animation-play-state:paused" >by</d:license>


<d:slug style="animation-play-state:paused" >kpp0bq</d:slug></metadata></g><!-- generated by https://loading.io/ --></svg>